Coordinates
version=1
nRows=36
nColumns=34
inDegrees=no

Units are S.I. units (second, meters, Newtons, ...)
If the header above contains a line with 'inDegrees', this indicates whether rotational values are in degrees (yes) or radians (no).

endheader
time	pelvis_tilt	pelvis_list	pelvis_rotation	pelvis_tx	pelvis_ty	pelvis_tz	hip_flexion_r	hip_adduction_r	hip_rotation_r	knee_angle_r	ankle_angle_r	subtalar_angle_r	mtp_angle_r	hip_flexion_l	hip_adduction_l	hip_rotation_l	knee_angle_l	ankle_angle_l	subtalar_angle_l	mtp_angle_l	lumbar_extension	lumbar_bending	lumbar_rotation	arm_flex_r	arm_add_r	arm_rot_r	elbow_flex_r	pro_sup_r	arm_flex_l	arm_add_l	arm_rot_l	elbow_flex_l	pro_sup_l
0	0.10975	-0.0199342	0.0552147	-0.0819582	1.11513	-0.270898	0.307993	0.0266648	-0.192727	0.208219	-0.0761588	0.000902677	-0.0160387	-0.434596	-0.0678711	-0.270062	0.34422	-0.00609715	0.0511909	-0.0562398	-0.394158	0.0646231	-0.0524937	-0.193475	-0.1574	-0.187314	0.618195	2.00444	-0.147338	-0.212898	-0.12805	0.711872	2.00855
0.01	0.104502	-0.0286981	0.0542632	-0.0685709	1.11776	-0.269903	0.309964	0.0333572	-0.197749	0.222732	-0.0719267	0.00830823	-0.0160594	-0.403379	-0.0861269	-0.269183	0.407596	-0.0602604	0.00252154	-0.0562265	-0.389082	0.0792251	-0.0476848	-0.19142	-0.15923	-0.191797	0.617869	2.01091	-0.156101	-0.206845	-0.129064	0.713843	2.01306
0.02	0.099603	-0.0370395	0.0545632	-0.0554319	1.12027	-0.268997	0.310146	0.0402057	-0.202315	0.2341	-0.0680914	0.0134101	-0.01608	-0.371339	-0.103596	-0.265505	0.46947	-0.114024	-0.0454441	-0.0562132	-0.384212	0.0934168	-0.0437196	-0.189728	-0.161073	-0.195739	0.618921	2.01591	-0.1639	-0.202086	-0.127042	0.716144	2.01664
0.03	0.0950649	-0.0449594	0.0561172	-0.0425398	1.12269	-0.268177	0.308553	0.047197	-0.206438	0.242349	-0.0646552	0.0162316	-0.0161006	-0.338459	-0.120266	-0.259053	0.529863	-0.167193	-0.0926077	-0.0561999	-0.379557	0.107194	-0.0405885	-0.188393	-0.162928	-0.199147	0.621346	2.01941	-0.170713	-0.198618	-0.12199	0.718766	2.0193
0.04	0.0908978	-0.052445	0.0589229	-0.0298979	1.12501	-0.267443	0.305243	0.0542767	-0.210155	0.247582	-0.0616175	0.0168599	-0.0161213	-0.304703	-0.136076	-0.249886	0.588802	-0.219176	-0.138682	-0.0561865	-0.375132	0.120532	-0.0382585	-0.187398	-0.164797	-0.202047	0.625118	2.02139	-0.176479	-0.196416	-0.113955	0.721681	2.02108
0.05	0.087093	-0.0594471	0.0629582	-0.0175138	1.12724	-0.266799	0.300353	0.0613181	-0.213528	0.250021	-0.0589635	0.0154858	-0.0161419	-0.270025	-0.150865	-0.238105	0.64628	-0.268878	-0.183149	-0.0561732	-0.370941	0.133367	-0.0366643	-0.186709	-0.166683	-0.204494	0.630168	2.02181	-0.181099	-0.19542	-0.103063	0.724831	2.02208
0.06	0.0835927	-0.0658619	0.0681667	-0.00539838	1.1294	-0.266252	0.294138	0.0681027	-0.216648	0.250034	-0.0566514	0.0124253	-0.0161625	-0.234366	-0.16435	-0.223859	0.702222	-0.314727	-0.225292	-0.0561599	-0.366953	0.145583	-0.0357104	-0.186275	-0.168591	-0.206585	0.636383	2.02066	-0.184455	-0.195517	-0.0895685	0.728136	2.02251
0.07	0.080268	-0.071524	0.0744477	0.00643598	1.13148	-0.265815	0.286987	0.0743124	-0.219627	0.248128	-0.0545962	0.00812229	-0.0161832	-0.197655	-0.176119	-0.207344	0.756472	-0.354864	-0.264293	-0.0561466	-0.363077	0.15701	-0.0352835	-0.186025	-0.170528	-0.208458	0.643596	2.01801	-0.186441	-0.19653	-0.0738818	0.731509	2.02264
0.08	0.0769165	-0.0762228	0.0816537	0.0179776	1.13348	-0.265498	0.279394	0.0795487	-0.222602	0.244911	-0.0526598	0.00312815	-0.0162038	-0.159819	-0.185665	-0.188811	0.80879	-0.387451	-0.299368	-0.0561333	-0.359155	0.167423	-0.0352672	-0.185871	-0.172505	-0.210286	0.651597	2.01397	-0.186994	-0.198227	-0.0565688	0.734879	2.02281
0.09	0.0732869	-0.079733	0.0895924	0.029218	1.13539	-0.265313	0.271902	0.0833807	-0.225724	0.241013	-0.0506534	-0.0019372	-0.0162245	-0.120808	-0.192448	-0.168589	0.858852	-0.411027	-0.329909	-0.05612	-0.354991	0.17657	-0.0355523	-0.185716	-0.17454	-0.212253	0.660155	2.00873	-0.186123	-0.20033	-0.0383204	0.738216	2.0234
0.1	0.0691297	-0.0818579	0.0980313	0.0401548	1.1372	-0.265261	0.264991	0.085419	-0.229138	0.237005	-0.0483556	-0.00643802	-0.0162451	-0.0806688	-0.195991	-0.147097	0.906261	-0.424827	-0.355585	-0.0561067	-0.350399	0.184209	-0.036034	-0.185457	-0.176651	-0.214532	0.669029	2.00253	-0.183933	-0.202548	-0.0198938	0.741549	2.02473
0.11	0.0642794	-0.0824818	0.106704	0.0507959	1.13891	-0.265336	0.258959	0.0854024	-0.23296	0.233299	-0.0455477	-0.00978287	-0.0162658	-0.0396188	-0.195979	-0.124874	0.950551	-0.428977	-0.376393	-0.0560934	-0.345279	0.190142	-0.036596	-0.184999	-0.178865	-0.217249	0.677988	1.99563	-0.18062	-0.204607	-0.002038	0.74497	2.02703
0.12	0.0587597	-0.0815826	0.115304	0.0611611	1.14052	-0.265516	0.25381	0.0832837	-0.237228	0.230075	-0.0420578	-0.0114847	-0.0162864	0.00187489	-0.192358	-0.102581	0.991191	-0.4245	-0.392629	-0.0560801	-0.339688	0.194277	-0.0370868	-0.184259	-0.181209	-0.22047	0.686828	1.98832	-0.176472	-0.206279	0.0145815	0.748628	2.0304
0.13	0.0528231	-0.0792494	0.123495	0.0712869	1.14208	-0.265768	0.24918	0.0792806	-0.241873	0.22725	-0.0378029	-0.0112128	-0.0163071	0.043052	-0.185399	-0.0809835	1.02762	-0.413145	-0.404821	-0.0560668	-0.3339	0.196649	-0.037303	-0.183181	-0.183707	-0.224183	0.695376	1.98088	-0.171833	-0.207413	0.0294456	0.752707	2.03481
0.14	0.0469335	-0.0756953	0.130929	0.0812243	1.14362	-0.266049	0.244365	0.0738674	-0.246703	0.2245	-0.032815	-0.00883054	-0.0163277	0.0829047	-0.175682	-0.0608984	1.05927	-0.397069	-0.413612	-0.0560535	-0.328398	0.197425	-0.0369934	-0.181731	-0.186378	-0.228304	0.703499	1.97361	-0.167074	-0.207941	0.0422231	0.757397	2.04008
0.15	0.0416668	-0.0712252	0.137291	0.0910341	1.14518	-0.266315	0.238482	0.0676908	-0.251425	0.221349	-0.0272365	-0.00440943	-0.0163483	0.120351	-0.164016	-0.043084	1.08567	-0.378462	-0.41966	-0.0560401	-0.323772	0.196872	-0.0359014	-0.179901	-0.189231	-0.23269	0.711099	1.96683	-0.162545	-0.207883	0.052786	0.76286	2.04592
0.16	0.0375208	-0.0661623	0.142353	0.100773	1.14681	-0.266528	0.23076	0.0614043	-0.255723	0.217323	-0.021278	0.00178889	-0.016369	0.154525	-0.151257	-0.0280956	1.10654	-0.359229	-0.423575	-0.0560268	-0.32053	0.195294	-0.0338477	-0.177693	-0.192262	-0.237168	0.718109	1.96085	-0.158529	-0.207328	0.0612	0.769191	2.05197
0.17	0.0347982	-0.0607906	0.146007	0.110483	1.14852	-0.266661	0.220726	0.0555426	-0.259312	0.21206	-0.015169	0.00935615	-0.0163896	0.184948	-0.138166	-0.016207	1.12177	-0.340757	-0.425851	-0.0560134	-0.31897	0.192978	-0.0307753	-0.175115	-0.19546	-0.241556	0.724498	1.95597	-0.155208	-0.20641	0.0676885	0.776403	2.05782
0.18	0.0335829	-0.0553373	0.148261	0.120188	1.1503	-0.2667	0.208255	0.0504723	-0.26196	0.205369	-0.00911974	0.0177889	-0.0164103	0.211545	-0.125341	-0.00741431	1.13148	-0.32381	-0.426821	-0.056	-0.319156	0.190166	-0.0267469	-0.172183	-0.198802	-0.245702	0.730273	1.95243	-0.152663	-0.205283	0.072579	0.784433	2.06303
0.19	0.0337671	-0.049981	0.149217	0.129893	1.15212	-0.266635	0.193529	0.0463964	-0.263503	0.197233	-0.00329679	0.0265386	-0.016431	0.234584	-0.113203	-0.00148838	1.13593	-0.30857	-0.426634	-0.0559866	-0.320954	0.187052	-0.0219163	-0.168916	-0.202257	-0.249491	0.735488	1.95039	-0.150882	-0.204097	0.0762431	0.793166	2.0672
0.2	0.0351025	-0.0448549	0.149049	0.139588	1.15395	-0.266468	0.176954	0.043379	-0.263835	0.187785	0.00219182	0.0350628	-0.0164516	0.254558	-0.102013	0.00195009	1.13549	-0.294778	-0.425286	-0.0559731	-0.324091	0.183787	-0.0164941	-0.16534	-0.205789	-0.25286	0.740241	1.94987	-0.149779	-0.202985	0.0790417	0.802451	2.06996
0.21	0.0372645	-0.0400513	0.147966	0.149254	1.15573	-0.266205	0.159061	0.0413805	-0.262912	0.177276	0.00730102	0.0428715	-0.0164723	0.272073	-0.0918997	0.00334957	1.13056	-0.281946	-0.422682	-0.0559597	-0.32822	0.18048	-0.010715	-0.161485	-0.209358	-0.255795	0.744664	1.95076	-0.149223	-0.202044	0.0812831	0.812126	2.07103
0.22	0.0399127	-0.0356284	0.146191	0.15887	1.15743	-0.265853	0.14041	0.0402939	-0.260744	0.166017	0.0120429	0.049566	-0.016493	0.287737	-0.082895	0.00315549	1.12155	-0.269562	-0.418718	-0.0559462	-0.332987	0.177209	-0.00481061	-0.157379	-0.212926	-0.258311	0.748908	1.95278	-0.149063	-0.201333	0.0831965	0.822031	2.07027
0.23	0.0427378	-0.0316198	0.143938	0.168415	1.159	-0.265424	0.121518	0.0399764	-0.257394	0.154345	0.0164745	0.0548682	-0.0165136	0.302083	-0.07497	0.00175716	1.10882	-0.257243	-0.413347	-0.0559328	-0.338077	0.174022	0.00100925	-0.153043	-0.216453	-0.260447	0.753121	1.95555	-0.149141	-0.200876	0.0849246	0.832016	2.06769
0.24	0.0454923	-0.0280403	0.14139	0.177872	1.16041	-0.264931	0.102815	0.0402728	-0.252971	0.142587	0.0206823	0.0586379	-0.0165343	0.31552	-0.0680601	-0.000541502	1.09269	-0.24482	-0.406628	-0.0559193	-0.343245	0.170946	0.0065681	-0.148496	-0.219906	-0.262249	0.757425	1.95864	-0.149316	-0.200665	0.0865316	0.841939	2.06344
0.25	0.0480086	-0.0248886	0.138697	0.187231	1.16164	-0.264386	0.0846166	0.0410318	-0.247633	0.131033	0.0247679	0.0608772	-0.016555	0.328315	-0.0620818	-0.00352723	1.0734	-0.232331	-0.398726	-0.0559058	-0.348322	0.167991	0.0117278	-0.143753	-0.223252	-0.263766	0.761909	1.96167	-0.149463	-0.200668	0.0880235	0.851672	2.05781
0.26	0.0501966	-0.0221487	0.135971	0.196487	1.16268	-0.263802	0.0671283	0.0421175	-0.241573	0.119924	0.0288338	0.0617196	-0.0165757	0.340605	-0.0569424	-0.00706398	1.05118	-0.219961	-0.389884	-0.0558922	-0.353217	0.165157	0.0163901	-0.138827	-0.226463	-0.265046	0.766619	1.96435	-0.149475	-0.20084	0.0893737	0.861088	2.05122
0.27	0.0520365	-0.0197927	0.133294	0.20564	1.16353	-0.263188	0.0504485	0.0434179	-0.235014	0.10944	0.0329714	0.0614048	-0.0165964	0.352408	-0.0525444	-0.011068	1.0262	-0.207941	-0.380362	-0.0558787	-0.357902	0.162441	0.0204925	-0.133737	-0.229513	-0.266135	0.771561	1.96653	-0.149266	-0.201129	0.0905494	0.870066	2.04411
0.28	0.0535663	-0.0177874	0.130723	0.214696	1.16419	-0.262552	0.0345791	0.0448474	-0.228192	0.0996968	0.0372521	0.0602418	-0.0166171	0.363655	-0.0487866	-0.0154818	0.998649	-0.196461	-0.370354	-0.0558652	-0.362404	0.159837	0.0240017	-0.128512	-0.232381	-0.267077	0.776711	1.96822	-0.148762	-0.201491	0.0915322	0.878488	2.03696
0.29	0.0548684	-0.0160996	0.128303	0.223665	1.16468	-0.261905	0.0194383	0.0463485	-0.22134	0.0907435	0.0417195	0.0585663	-0.0166379	0.374213	-0.0455659	-0.0202537	0.968696	-0.185594	-0.359923	-0.0558516	-0.366784	0.157345	0.0269054	-0.123193	-0.23505	-0.267903	0.782025	1.96952	-0.147903	-0.20189	0.0923297	0.886237	2.03022
0.3	0.0560529	-0.0147001	0.126065	0.232561	1.16501	-0.261254	0.00488001	0.0478918	-0.214668	0.0825664	0.0463869	0.0566999	-0.0166586	0.383918	-0.0427819	-0.0253291	0.936548	-0.175284	-0.348944	-0.0558381	-0.371127	0.154964	0.0292075	-0.117832	-0.237513	-0.268631	0.787445	1.97063	-0.146642	-0.202305	0.0929773	0.893207	2.02427
0.31	0.0572398	-0.0135648	0.124034	0.241402	1.1652	-0.260604	-0.00927954	0.0494722	-0.208346	0.0751029	0.051239	0.0549168	-0.0166794	0.392603	-0.0403436	-0.030654	0.902434	-0.165362	-0.337098	-0.0558246	-0.375517	0.152697	0.0309251	-0.112491	-0.239769	-0.269249	0.792911	1.97173	-0.144947	-0.202731	0.0935297	0.899297	2.01943
0.32	0.0585385	-0.0126741	0.122224	0.250209	1.16528	-0.259961	-0.0232288	0.0511022	-0.202494	0.0682625	0.0562402	0.0534247	-0.0167001	0.400127	-0.0381745	-0.0361879	0.866618	-0.155609	-0.323906	-0.0558111	-0.380022	0.15054	0.0320903	-0.107238	-0.241828	-0.269716	0.798362	1.97298	-0.142802	-0.203176	0.0940464	0.904423	2.01595
0.33	0.0600306	-0.0120095	0.120625	0.259001	1.16524	-0.259326	-0.0371263	0.0528006	-0.197173	0.0619522	0.0613468	0.0523614	-0.0167209	0.406397	-0.0362163	-0.0419222	0.829389	-0.145827	-0.308798	-0.0557976	-0.384682	0.14848	0.0327529	-0.102135	-0.243712	-0.26996	0.803741	1.97446	-0.140208	-0.203654	0.0945749	0.908518	2.01398
0.34	0.061757	-0.0115514	0.119206	0.267795	1.16511	-0.258699	-0.0510724	0.0545819	-0.192392	0.0561009	0.0665227	0.051804	-0.0167416	0.411385	-0.0344282	-0.0478931	0.791054	-0.135905	-0.291228	-0.0557841	-0.389499	0.146489	0.0329827	-0.0972369	-0.24545	-0.26989	0.808996	1.97616	-0.137181	-0.204181	0.095135	0.911531	2.01364
0.35	0.0637145	-0.0112759	0.117907	0.276608	1.1649	-0.258076	-0.0650937	0.0564464	-0.188119	0.0506779	0.0717511	0.0517868	-0.0167624	0.415124	-0.0327833	-0.054184	0.751926	-0.125862	-0.270776	-0.0557706	-0.394438	0.144517	0.0328674	-0.0925859	-0.247076	-0.269406	0.814082	1.97806	-0.133755	-0.204766	0.0957102	0.913432	2.01495
